# xmcd CD database file
#
# Track frame offsets:
#	150
#	47545
#	91952
#	134945
#	195795
#	249677
#	280895
#
# Disc length: 3890 seconds
#
# Revision: 1
# Processed by: cddbd v1.5.1PL0 Copyright (c) Steve Scherf et al.
# Submitted via: CDex 1.51
#
DISCID=600f3007
DTITLE=COMIC ZERO-SUM - STRANGE＋
DYEAR=2005
DGENRE=DRAMA CD
TTITLE0=STAGE1[BROTHERS]
TTITLE1=STAGE2[RECONDUCT]
TTITLE2=STAGE3[RELIANCE]
TTITLE3=STAGE4[HOSPITAL]
TTITLE4=STAGE5[PROCESSION]
TTITLE5=BONUS STAGE
TTITLE6=CAST COMMENT
EXTD=YEAR: 2005
EXTT0=
EXTT1=
EXTT2=
EXTT3=
EXTT4=
EXTT5=
EXTT6=
PLAYORDER=
